<svg xmlns="http://www.w3.org/2000/svg" xmlns:xlink="http://www.w3.org/1999/xlink" width="500" zoomAndPan="magnify" viewBox="0 0 375 374.999991" height="500" preserveAspectRatio="xMidYMid meet" version="1.0"><defs><clipPath id="0f2e6dec01"><path d="M 92 3.160156 L 220 3.160156 L 220 291 L 92 291 Z M 92 3.160156 " clip-rule="nonzero"/></clipPath><clipPath id="4ac19cf505"><path d="M 43.714844 58 L 330.964844 58 L 330.964844 351 L 43.714844 351 Z M 43.714844 58 " clip-rule="nonzero"/></clipPath><clipPath id="ed3f0676c1"><path d="M 197 354 L 288 354 L 288 370.660156 L 197 370.660156 Z M 197 354 " clip-rule="nonzero"/></clipPath></defs><g clip-path="url(#0f2e6dec01)"><path fill="#ffffff" d="M 196.804688 3.304688 C 196.359375 3.417969 195.914062 3.671875 195.605469 3.980469 C 194.777344 4.800781 194.484375 6 194.046875 10.222656 C 193.878906 11.789062 193.496094 14.207031 192.296875 21.234375 C 191.277344 27.207031 190.890625 30.132812 190.792969 32.605469 C 190.730469 34.164062 190.667969 34.746094 189.703125 42.386719 C 187.246094 62.035156 184.121094 79.734375 180.089844 96.894531 C 171.910156 131.714844 159.164062 170.175781 145.246094 202.011719 C 140.523438 212.828125 134.617188 225.023438 129.335938 234.894531 C 123.277344 246.230469 116.703125 256.617188 109.339844 266.492188 C 105.632812 271.46875 102.484375 275.191406 96.332031 281.886719 C 93.394531 285.074219 92.488281 286.324219 92.148438 287.613281 C 91.988281 288.230469 91.996094 288.484375 92.1875 289.113281 C 92.324219 289.542969 92.433594 289.726562 92.785156 290.070312 C 93.429688 290.71875 93.875 290.863281 95.167969 290.863281 C 96.671875 290.863281 97.777344 290.625 102.90625 289.195312 C 117.074219 285.242188 124.265625 283.699219 134.648438 282.371094 C 146.457031 280.851562 155.769531 280.496094 169.636719 281.011719 C 188.273438 281.703125 192.695312 281.816406 196.917969 281.695312 C 200.242188 281.601562 201.964844 281.464844 203.746094 281.164062 C 207.382812 280.542969 209.527344 279.582031 211.339844 277.75 C 211.777344 277.3125 212.375 276.613281 212.667969 276.199219 C 213.273438 275.34375 214.042969 273.894531 214.355469 273.035156 C 214.863281 271.605469 215.222656 269.65625 215.316406 267.8125 C 215.347656 267.183594 215.445312 266.453125 215.554688 265.945312 C 215.929688 264.328125 216.183594 262.214844 216.78125 255.6875 C 217.78125 244.847656 218.402344 234.183594 218.933594 218.75 C 219.460938 203.355469 219.609375 193.234375 219.546875 177.5625 C 219.492188 165.039062 219.386719 158.949219 219.054688 148.898438 C 218.125 121.136719 215.609375 87.851562 212.691406 64.660156 C 209.878906 42.300781 205.71875 20.902344 202.125 10.324219 C 200.398438 5.253906 199.222656 3.480469 197.425781 3.273438 C 197.25 3.25 196.972656 3.265625 196.804688 3.304688 Z M 198.570312 12.164062 C 201.765625 21.863281 205.527344 40.804688 208.199219 60.714844 C 211.332031 84.058594 214.085938 119.292969 215.078125 148.738281 C 215.421875 159.027344 215.515625 164.800781 215.570312 177.683594 C 215.652344 197.335938 215.300781 213.78125 214.402344 232.585938 C 213.910156 242.875 213.019531 254.753906 212.207031 261.847656 C 212.144531 262.414062 212.039062 263.414062 211.96875 264.074219 C 211.84375 265.417969 211.667969 266.5625 211.5 267.214844 C 211.4375 267.453125 211.347656 268.042969 211.300781 268.527344 C 211.046875 271.113281 210.308594 272.980469 208.898438 274.601562 C 207.605469 276.089844 205.996094 276.796875 202.792969 277.304688 C 201.265625 277.554688 200.226562 277.625 196.988281 277.71875 C 193.855469 277.816406 189.941406 277.757812 182.953125 277.511719 C 177.410156 277.320312 172.957031 277.164062 169.476562 277.027344 C 156.085938 276.535156 146.839844 276.875 135.207031 278.308594 C 124.726562 279.605469 116.789062 281.25 104.15625 284.75 C 97.722656 286.53125 97.484375 286.59375 97.523438 286.472656 C 97.539062 286.433594 98.597656 285.257812 99.867188 283.867188 C 105.53125 277.671875 108.410156 274.285156 111.652344 269.992188 C 118.683594 260.6875 125.488281 250.144531 131.246094 239.664062 C 135.9375 231.125 141.757812 219.386719 146.433594 209.050781 C 155.625 188.742188 164.554688 165 172.125 140.746094 C 182.222656 108.398438 188.488281 80.808594 192.65625 50.371094 C 193.503906 44.105469 194.363281 37.058594 194.363281 36.273438 C 194.363281 34.960938 194.59375 33.402344 195.207031 30.539062 C 195.707031 28.199219 196.058594 26.078125 196.390625 23.304688 C 196.648438 21.1875 196.988281 19.144531 197.226562 18.332031 C 197.265625 18.183594 197.457031 16.386719 197.640625 14.339844 C 197.824219 12.304688 198.007812 10.652344 198.039062 10.667969 C 198.070312 10.691406 198.308594 11.359375 198.570312 12.164062 Z M 198.570312 12.164062 " fill-opacity="1" fill-rule="nonzero"/></g><g clip-path="url(#4ac19cf505)"><path fill="#ffffff" d="M 221.183594 58.886719 C 220.421875 59.070312 219.816406 59.714844 219.640625 60.546875 C 219.5625 60.953125 219.585938 61.175781 219.921875 63.179688 C 223.671875 85.261719 227.609375 111.699219 230.105469 131.601562 C 232.332031 149.351562 235.21875 176.871094 236.46875 192.234375 C 237.976562 210.941406 238.867188 231.1875 239.132812 252.585938 C 239.179688 256.542969 239.25 259.328125 239.324219 260.378906 C 239.554688 263.503906 239.847656 267.996094 240.007812 270.90625 C 240.09375 272.519531 240.203125 274.09375 240.253906 274.402344 C 240.300781 274.714844 240.378906 275.542969 240.425781 276.242188 C 240.507812 277.273438 240.546875 277.511719 240.640625 277.511719 C 240.730469 277.511719 240.808594 277.28125 240.9375 276.597656 C 241.03125 276.097656 241.222656 275.214844 241.351562 274.652344 C 241.875 272.367188 242.582031 266.230469 242.996094 260.378906 C 243.3125 255.828125 242.875 235.28125 242.113281 218.632812 C 241.199219 198.832031 239.5625 179.71875 236.140625 148.976562 C 233.691406 126.933594 230.304688 102.398438 226.296875 77.652344 C 226.242188 77.277344 226.195312 76.96875 226.210938 76.953125 C 226.21875 76.945312 226.449219 77.476562 226.726562 78.144531 C 227.738281 80.601562 230.320312 86.597656 231.601562 89.460938 C 236.570312 100.625 240.15625 107.929688 250.34375 127.667969 C 258.054688 142.625 263.78125 154.949219 268.75 167.304688 C 276.863281 187.492188 282.324219 205.457031 285.800781 223.363281 C 288.429688 236.921875 290.054688 249.421875 290.976562 263.238281 C 291.660156 273.464844 291.59375 281.328125 290.792969 284.949219 C 290.695312 285.378906 290.6875 285.386719 290.179688 285.640625 C 288.925781 286.269531 283.300781 288.707031 281.1875 289.542969 L 280.582031 289.789062 L 279.574219 289.351562 C 277.164062 288.320312 275.691406 287.929688 269.507812 286.703125 C 254.597656 283.753906 243.910156 282.640625 230.265625 282.640625 C 223.070312 282.640625 214.210938 283.160156 212.007812 283.714844 C 210.917969 283.984375 208.773438 285.105469 208.511719 285.535156 C 208.207031 286.027344 208.382812 286.617188 208.914062 286.894531 C 209.394531 287.140625 211.4375 287.492188 212.421875 287.492188 C 212.757812 287.492188 213.664062 287.421875 214.449219 287.332031 C 222.1875 286.480469 233.722656 286.378906 243.824219 287.054688 C 251.203125 287.554688 257.992188 288.492188 267.71875 290.363281 C 270.023438 290.808594 274.683594 291.777344 274.875 291.859375 C 275 291.90625 274.929688 291.953125 274.515625 292.097656 C 261.929688 296.484375 249.992188 299.363281 230.105469 302.789062 C 218.777344 304.746094 209.582031 306.074219 198.578125 307.371094 C 178.167969 309.757812 162.027344 311.085938 146.378906 311.664062 C 140.953125 311.863281 138.949219 311.910156 133.375 311.960938 C 121.574219 312.054688 109.976562 311.625 100.296875 310.742188 C 86.804688 309.511719 76.453125 307.871094 66.503906 305.382812 C 62.121094 304.285156 60.175781 303.738281 56.40625 302.511719 C 53.105469 301.4375 52.207031 301.214844 51.324219 301.265625 C 50.554688 301.304688 50.148438 301.464844 49.6875 301.925781 C 48.953125 302.664062 48.859375 303.648438 49.40625 304.746094 C 49.851562 305.628906 50.824219 306.789062 54.140625 310.394531 C 58.464844 315.101562 61.941406 319.003906 64.324219 321.84375 C 66.296875 324.1875 69.980469 328.648438 71.511719 330.550781 C 72.355469 331.597656 73.34375 332.800781 73.707031 333.214844 C 74.066406 333.636719 74.519531 334.207031 74.710938 334.484375 C 75.15625 335.144531 75.632812 335.457031 76.292969 335.503906 C 77.5 335.589844 78.4375 334.628906 78.335938 333.402344 C 78.28125 332.71875 77.84375 331.972656 76.792969 330.75 C 76.285156 330.160156 75.289062 328.960938 74.589844 328.085938 C 68.578125 320.609375 63.394531 314.589844 56.9375 307.609375 C 56.4375 307.0625 56.03125 306.609375 56.046875 306.589844 C 56.054688 306.574219 56.605469 306.734375 57.25 306.933594 C 61.34375 308.207031 67.332031 309.734375 72.347656 310.78125 C 84.363281 313.285156 100.035156 315.085938 114.808594 315.640625 C 121.050781 315.871094 123.398438 315.910156 130.632812 315.910156 C 138.164062 315.910156 140.128906 315.878906 147.371094 315.601562 C 162.660156 315.003906 178.804688 313.667969 198.660156 311.339844 C 212.511719 309.714844 225.8125 307.6875 239.847656 305.066406 C 256.242188 301.996094 268.917969 298.578125 280.242188 294.171875 C 283.460938 292.914062 289.113281 290.523438 290.65625 289.765625 C 290.945312 289.625 291.300781 289.464844 291.453125 289.410156 C 291.605469 289.351562 292.375 288.996094 293.160156 288.605469 C 297.648438 286.402344 299.609375 285.417969 301.066406 284.667969 C 301.957031 284.207031 302.695312 283.84375 302.71875 283.859375 C 302.765625 283.914062 302.296875 285.8125 301.390625 289.28125 C 299.800781 295.324219 299.085938 298.785156 298.179688 304.785156 C 297.449219 309.597656 296.207031 320.664062 296.214844 322.320312 C 296.214844 322.910156 296.414062 324.285156 296.589844 324.976562 C 296.652344 325.230469 296.683594 325.46875 296.644531 325.5 C 296.613281 325.53125 296.023438 325.691406 295.347656 325.859375 C 291.90625 326.691406 288.082031 327.996094 284.214844 329.636719 C 281.585938 330.757812 280.25 331.382812 276.425781 333.316406 C 274.4375 334.328125 271.875 335.613281 270.738281 336.195312 C 263.273438 339.957031 257.625 341.648438 250.621094 342.214844 C 248.976562 342.34375 244.449219 342.34375 242.910156 342.207031 C 237.660156 341.761719 232.0625 340.617188 225.453125 338.652344 C 224.644531 338.40625 222.355469 337.714844 220.367188 337.101562 C 208.898438 333.570312 202.871094 332.273438 196.035156 331.863281 C 189.148438 331.449219 181.339844 332.554688 173.808594 335.019531 C 170.039062 336.25 166.765625 337.59375 159.617188 340.863281 C 157.804688 341.699219 155.816406 342.589844 155.203125 342.851562 C 145.90625 346.84375 138.1875 347.882812 129.242188 346.367188 C 125.964844 345.808594 122.625 344.902344 115.523438 342.636719 C 104.847656 339.242188 98.554688 337.792969 91.949219 337.230469 C 84.53125 336.601562 77.285156 337.132812 67.617188 339.027344 C 60.109375 340.496094 54.65625 341.976562 49.089844 344.042969 C 46.703125 344.933594 46.109375 345.226562 45.097656 346.046875 C 44.136719 346.820312 43.859375 347.207031 43.769531 347.875 L 43.714844 348.3125 L 44.089844 348.601562 C 44.714844 349.078125 45.128906 349.125 46.753906 348.917969 C 47.4375 348.824219 47.90625 348.710938 48.527344 348.472656 C 55.171875 345.9375 59.761719 344.632812 67.496094 343.082031 C 77.4375 341.085938 84.402344 340.550781 91.949219 341.210938 C 98.085938 341.746094 103.957031 343.105469 114.492188 346.453125 C 119.84375 348.144531 121.242188 348.558594 123.875 349.234375 C 133.21875 351.613281 140.890625 351.589844 149.351562 349.15625 C 153.128906 348.066406 155.15625 347.253906 163.15625 343.589844 C 170.390625 340.28125 174.765625 338.660156 179.613281 337.46875 C 188.210938 335.359375 195.804688 335.203125 204.542969 336.949219 C 208.734375 337.792969 212.867188 338.914062 220.84375 341.378906 C 227.808594 343.527344 231.984375 344.585938 236.585938 345.371094 C 242.296875 346.347656 247.035156 346.554688 252.132812 346.046875 C 257.148438 345.546875 261.554688 344.449219 266.484375 342.476562 C 269.125 341.417969 269.816406 341.085938 278.253906 336.816406 C 282.871094 334.484375 285.210938 333.421875 288.710938 332.085938 C 295.5625 329.453125 303.453125 327.839844 311.210938 327.480469 C 313.375 327.386719 315.164062 327.425781 318.089844 327.648438 C 319.203125 327.726562 320.800781 327.839844 321.628906 327.886719 C 323.765625 328.003906 325.90625 328.285156 327.710938 328.679688 C 328.085938 328.761719 328.730469 328.886719 329.144531 328.953125 C 329.554688 329.023438 330.015625 329.109375 330.152344 329.148438 C 330.511719 329.253906 330.589844 329.09375 330.296875 328.886719 C 330.175781 328.792969 329.792969 328.5 329.453125 328.226562 C 328.285156 327.3125 325.738281 325.9375 323.777344 325.160156 C 321.753906 324.363281 319.972656 323.894531 318.25 323.710938 C 314.695312 323.328125 309.890625 323.441406 305.367188 323.996094 C 303.445312 324.234375 299.753906 324.832031 299.230469 324.992188 C 299.125 325.023438 299.171875 324.863281 299.4375 324.292969 C 300.015625 323.050781 300.097656 322.6875 300.359375 319.855469 C 300.730469 315.855469 301.480469 309.519531 301.996094 305.980469 C 302.765625 300.644531 303.59375 296.507812 304.8125 291.824219 C 306.625 284.835938 306.800781 284.066406 306.800781 282.929688 C 306.800781 281.449219 306.15625 280.34375 304.984375 279.796875 C 304.582031 279.605469 304.4375 279.582031 303.699219 279.582031 C 302.386719 279.589844 301.695312 279.867188 297.21875 282.195312 C 296.082031 282.792969 295.132812 283.277344 295.109375 283.277344 C 295.085938 283.277344 295.109375 282.855469 295.15625 282.339844 C 295.585938 278.085938 295.5 271.566406 294.910156 262.683594 C 294.085938 250.367188 292.691406 239.132812 290.457031 226.765625 C 287.023438 207.777344 282 190.371094 274 169.847656 C 268.28125 155.171875 262.351562 142.289062 252.648438 123.53125 C 239.777344 98.628906 234.605469 87.417969 225.613281 64.929688 C 224 60.890625 223.546875 59.925781 223.003906 59.425781 C 222.457031 58.917969 221.835938 58.726562 221.183594 58.886719 Z M 221.183594 58.886719 " fill-opacity="1" fill-rule="nonzero"/></g><path fill="#ffffff" d="M 286.679688 304.222656 C 284.75 304.851562 284.996094 304.738281 283.300781 305.691406 C 280.421875 307.324219 278.46875 308.246094 274.953125 309.636719 C 265.992188 313.191406 255.640625 316.308594 245.414062 318.535156 C 238.074219 320.132812 230.503906 321.246094 219.648438 322.3125 C 218.179688 322.464844 215.785156 322.789062 209.234375 323.742188 C 208.03125 323.917969 206.21875 324.171875 205.210938 324.308594 C 204.191406 324.433594 202.992188 324.632812 202.546875 324.738281 C 202.09375 324.839844 201.542969 324.960938 201.320312 325 C 200.765625 325.09375 200.78125 325.277344 201.363281 325.367188 C 201.601562 325.40625 202.226562 325.515625 202.753906 325.621094 C 205.289062 326.121094 212.652344 326.503906 217.382812 326.367188 C 221.304688 326.257812 231.210938 325.101562 238.097656 323.949219 C 248.878906 322.152344 261.007812 318.957031 271.496094 315.164062 C 277.808594 312.875 281.570312 311.226562 285.328125 309.082031 C 286.492188 308.414062 286.832031 308.175781 287.445312 307.585938 C 288.335938 306.742188 289.28125 305.652344 289.527344 305.207031 C 289.757812 304.777344 289.78125 303.953125 289.566406 303.953125 C 289.488281 303.953125 289.351562 303.894531 289.273438 303.832031 C 288.957031 303.59375 288.328125 303.691406 286.679688 304.222656 Z M 286.679688 304.222656 " fill-opacity="1" fill-rule="nonzero"/><g clip-path="url(#ed3f0676c1)"><path fill="#ffffff" d="M 233.566406 354.683594 C 226.824219 355 219.316406 356.695312 212.335938 359.46875 C 207.460938 361.410156 203.820312 363.84375 200.226562 367.554688 C 199 368.828125 197.480469 370.710938 197.601562 370.824219 C 197.632812 370.863281 197.917969 370.746094 198.222656 370.554688 C 198.53125 370.363281 199.03125 370.070312 199.335938 369.894531 C 199.644531 369.71875 200.390625 369.273438 201.003906 368.898438 C 203.144531 367.597656 205.957031 366.226562 208.941406 365.050781 C 209.78125 364.71875 211.578125 364.007812 212.929688 363.46875 C 214.289062 362.929688 216.097656 362.246094 216.945312 361.957031 C 224.253906 359.476562 231.433594 358.347656 237.898438 358.648438 C 243.042969 358.898438 247.472656 359.582031 256.984375 361.601562 C 264.347656 363.160156 266.347656 363.484375 269.886719 363.675781 C 273.1875 363.851562 276.695312 363.476562 279.675781 362.632812 C 281.003906 362.261719 281.949219 361.902344 283.167969 361.304688 C 283.960938 360.917969 284.167969 360.773438 284.867188 360.097656 C 285.726562 359.277344 286.816406 357.972656 287.078125 357.464844 C 287.191406 357.242188 287.238281 357.011719 287.230469 356.6875 L 287.214844 356.226562 L 286.730469 356.113281 C 286.261719 356.011719 286.21875 356.011719 285.648438 356.226562 C 285.320312 356.351562 284.351562 356.695312 283.5 356.988281 C 282.648438 357.289062 281.609375 357.695312 281.195312 357.886719 C 278.230469 359.292969 273.960938 359.960938 269.664062 359.699219 C 266.667969 359.515625 264.609375 359.183594 258.40625 357.871094 C 249.835938 356.058594 245.960938 355.382812 241.714844 354.960938 C 238.902344 354.683594 235.792969 354.578125 233.566406 354.683594 Z M 233.566406 354.683594 " fill-opacity="1" fill-rule="nonzero"/></g><path fill="#ffffff" d="M 190.585938 356.804688 C 188.027344 357.585938 186.808594 358.046875 185.777344 358.625 C 182.707031 360.351562 179.375 361.785156 175.359375 363.09375 C 168.925781 365.195312 163.082031 365.878906 157.238281 365.21875 C 154.121094 364.859375 151.710938 364.40625 143.753906 362.683594 C 133.664062 360.496094 129.625 359.8125 124.03125 359.34375 C 118.730469 358.890625 112.894531 359.078125 109.441406 359.820312 C 104.164062 360.949219 100.632812 362.484375 97.433594 365.042969 C 96.609375 365.710938 95.304688 367.046875 95.398438 367.144531 C 95.480469 367.230469 96.632812 366.855469 98.269531 366.210938 C 101.953125 364.765625 104.394531 364.230469 110.578125 363.546875 C 114.5 363.117188 115.03125 363.078125 118.109375 363.078125 C 121.050781 363.078125 122.640625 363.152344 125.402344 363.4375 C 130.117188 363.914062 134.082031 364.613281 143.277344 366.609375 C 151.976562 368.496094 155.050781 369.035156 158.6875 369.320312 C 160.410156 369.457031 164.539062 369.367188 166.222656 369.164062 C 171.734375 368.496094 177.515625 366.839844 183.351562 364.265625 C 185.59375 363.277344 188.210938 361.839844 189.085938 361.125 C 189.6875 360.621094 191.9375 358.246094 192.105469 357.933594 C 192.160156 357.816406 192.234375 357.527344 192.25 357.296875 L 192.289062 356.871094 L 191.980469 356.765625 C 191.566406 356.636719 191.082031 356.65625 190.585938 356.804688 Z M 190.585938 356.804688 " fill-opacity="1" fill-rule="nonzero"/></svg>